<?xml version="1.0" standalone="no"?>
<!DOCTYPE svg PUBLIC "-//W3C//DTD SVG 20010904//EN"
 "http://www.w3.org/TR/2001/REC-SVG-20010904/DTD/svg10.dtd">
<svg version="1.0" xmlns="http://www.w3.org/2000/svg"
 width="2048.000000pt" height="2048.000000pt" viewBox="0 0 2048.000000 2048.000000"
 preserveAspectRatio="xMidYMid meet">
<metadata>
Created by potrace 1.11, written by Peter Selinger 2001-2013
</metadata>
<g transform="translate(0.000000,2048.000000) scale(0.100000,-0.100000)"
fill="#FF5721" stroke="none">
<path d="M4150 20469 c-1341 -94 -2573 -805 -3329 -1919 -444 -655 -695 -1384
-751 -2180 -14 -200 -14 -12060 0 -12260 103 -1478 916 -2781 2199 -3525 570
-331 1221 -527 1901 -575 200 -14 12060 -14 12260 0 1478 103 2781 916 3525
2199 233 402 403 854 501 1335 l24 119 0 6577 0 6577 -24 119 c-98 481 -268
933 -501 1335 -744 1283 -2047 2096 -3525 2199 -176 12 -12106 11 -12280 -1z
m10185 -2074 c33 -9 93 -31 133 -50 93 -44 2647 -1830 2717 -1901 94 -94 164
-224 211 -392 18 -64 19 -1062 4 -6407 -7 -2626 -7 -2630 -28 -2704 -11 -41
-36 -104 -54 -140 -44 -87 -3087 -4438 -3156 -4513 -90 -97 -231 -177 -367
-208 -80 -19 -239 -14 -328 9 -212 55 -400 217 -477 411 -59 147 -54 -155 -60
3499 l-5 3344 -1228 -1751 c-676 -963 -1243 -1763 -1260 -1778 -47 -40 -89
-54 -157 -54 -71 0 -123 19 -167 62 -17 17 -573 803 -1235 1748 l-1203 1718
-5 -3311 -5 -3312 -23 -75 c-62 -201 -185 -351 -362 -444 -282 -148 -635 -85
-850 152 -71 78 -3093 4395 -3144 4492 -19 36 -45 99 -57 140 -27 89 -24 -398
-38 5305 -8 3092 -8 3753 3 3816 25 142 91 271 191 373 77 79 2617 1859 2727
1911 40 19 102 42 138 52 86 23 253 23 340 0 86 -23 212 -86 280 -141 33 -26
780 -894 1850 -2149 987 -1158 1798 -2106 1801 -2106 3 -1 34 65 69 147 199
464 452 904 754 1307 118 158 27 49 1244 1497 1112 1323 1118 1330 1246 1395
157 80 337 100 501 58z"/>
</g>
</svg>
